<svg xmlns="http://www.w3.org/2000/svg" width="23.455" height="16.707" viewBox="0 0 23.455 16.707">
  <path id="Path_6226_-_Outline" data-name="Path 6226 - Outline" d="M5.609,17.769h16.23a3.617,3.617,0,0,1,3.616,3.609v4.877a3.619,3.619,0,0,1-3.616,3.616H10.49L5.885,34.476V29.871H5.609A3.617,3.617,0,0,1,2,26.255V21.378A3.613,3.613,0,0,1,5.609,17.769Zm16.23,11.1a2.619,2.619,0,0,0,2.616-2.616V21.378a2.615,2.615,0,0,0-2.616-2.609H5.609A2.612,2.612,0,0,0,3,21.378v4.877a2.615,2.615,0,0,0,2.609,2.616H6.885v3.191l3.191-3.191Z" transform="translate(-2 -17.769)" fill="#e31837"/>
</svg>
