<svg xmlns="http://www.w3.org/2000/svg" width="21.5" height="18.5" viewBox="0 0 21.5 18.5">
  <g id="Group_1478" data-name="Group 1478" transform="translate(-1.25 -2.75)">
    <g id="Group_1477" data-name="Group 1477">
      <path id="Path_44" data-name="Path 44" d="M17.665,21.171A.75.75,0,0,0,18.75,20.5V18.191a4.751,4.751,0,0,0,4-4.691v-6A4.75,4.75,0,0,0,18,2.75H6A4.75,4.75,0,0,0,1.25,7.5v6A4.75,4.75,0,0,0,6,18.25h5.823l5.842,2.921ZM6.5,13.25h11a.75.75,0,0,0,0-1.5H6.5a.75.75,0,0,0,0,1.5Zm0-4h11a.75.75,0,0,0,0-1.5H6.5a.75.75,0,0,0,0,1.5Z" fill="#7b7b7b" fill-rule="evenodd"/>
    </g>
  </g>
</svg>
