<svg xmlns="http://www.w3.org/2000/svg" width="55.006" height="60" viewBox="0 0 55.006 60">
  <g id="Group_1503" data-name="Group 1503" transform="translate(-90.216 -108.83)">
    <path id="Path_6238" data-name="Path 6238" d="M93.52,111.475a2.5,2.5,0,0,0-2.51,2.51v27.5a5.04,5.04,0,0,0,5,5h30.007a5.04,5.04,0,0,0,5-5v-27.5a2.5,2.5,0,0,0-2.51-2.51Zm2.491,5h30.007v25.006H96.011Z" transform="translate(6.704 22.347)" fill="#acacac"/>
    <path id="Path_6239" data-name="Path 6239" d="M97.58,111.5a2.493,2.493,0,0,0-2.362,3.968l7.493,10a2.5,2.5,0,1,0,4-3.009l-7.493-10a2.5,2.5,0,0,0-1.642-.96Z" transform="translate(38.003 22.355)" fill="#acacac"/>
    <path id="Path_6240" data-name="Path 6240" d="M99.873,111.5a2.5,2.5,0,0,0-1.661.96l-7.492,10a2.5,2.5,0,1,0,4,3.009l7.493-10a2.487,2.487,0,0,0-2.344-3.968Z" transform="translate(0 22.358)" fill="#acacac"/>
    <path id="Path_6241" data-name="Path 6241" d="M95.355,108.83a2.5,2.5,0,0,0-2.491,2.491v5a2.5,2.5,0,0,0,5,0v-5a2.5,2.5,0,0,0-2.51-2.491Z" transform="translate(22.365 0)" fill="#acacac"/>
    <path id="Path_6242" data-name="Path 6242" d="M100.164,109.517a2.5,2.5,0,0,0-3.414.923l-2.491,4.318a2.5,2.5,0,1,0,4.318,2.51l2.51-4.337a2.5,2.5,0,0,0-.923-3.414Z" transform="translate(31.303 2.989)" fill="#acacac"/>
    <path id="Path_6243" data-name="Path 6243" d="M100.288,110.486,95.951,113a2.493,2.493,0,1,0,2.491,4.318l4.337-2.491a2.5,2.5,0,0,0-2.491-4.337Z" transform="translate(37.842 11.175)" fill="#acacac"/>
    <path id="Path_6244" data-name="Path 6244" d="M94.7,109.273a2.5,2.5,0,0,0-2.824,3.654l2.51,4.337a2.505,2.505,0,0,0,4.337-2.51l-2.51-4.318a2.5,2.5,0,0,0-1.513-1.163Z" transform="translate(11.175 2.987)" fill="#acacac"/>
    <path id="Path_6245" data-name="Path 6245" d="M92.423,110.237a2.5,2.5,0,0,0-.609,4.577l4.337,2.491a2.493,2.493,0,1,0,2.491-4.318l-4.318-2.5a2.5,2.5,0,0,0-1.9-.24Z" transform="translate(3.003 11.179)" fill="#acacac"/>
    <path id="Path_6246" data-name="Path 6246" d="M95.637,113.855a2.5,2.5,0,1,0,0,5h7.492a2.5,2.5,0,0,0,0-5Z" transform="translate(24.592 42.455)" fill="#acacac"/>
  </g>
</svg>
