<svg xmlns="http://www.w3.org/2000/svg" width="11.445" height="11" viewBox="0 0 11.445 11">
  <path id="Path_54_-_Outline" data-name="Path 54 - Outline" d="M9.21,5.449a1.246,1.246,0,0,1,.886.363h.261v.366l1.166,2a.031.031,0,0,0,.022.018l2.4.523a1.265,1.265,0,0,1,.923.822l.006.017a1.266,1.266,0,0,1-.25,1.2l-.008.009-1.635,1.838-.008.01s0,.006,0,.016l.24,2.426a1.233,1.233,0,0,1-.486,1.134l-.018.014a1.24,1.24,0,0,1-1.237.133l-2.261-1-.005,0-2.254.993a1.275,1.275,0,0,1-.507.107,1.245,1.245,0,0,1-.728-.238L5.7,16.2a1.238,1.238,0,0,1-.491-1.14l.24-2.425a.076.076,0,0,0,0-.016l-.006-.007L3.8,10.764a1.264,1.264,0,0,1-.254-1.2l.006-.017a1.267,1.267,0,0,1,.923-.825l.007,0,2.4-.524s.007,0,.016-.016L8.134,6.055A1.247,1.247,0,0,1,9.21,5.449ZM9.445,6.6l-.017-.029a.239.239,0,0,0-.218-.12.242.242,0,0,0-.218.12L7.761,8.683a1.021,1.021,0,0,1-.664.49L4.7,9.7a.262.262,0,0,0-.2.175.267.267,0,0,0,.061.242l1.632,1.831a1.015,1.015,0,0,1,.259.761v.016L6.2,15.165a.248.248,0,0,0,.35.26l2.247-.99a.964.964,0,0,1,.831,0l2.243.988a.241.241,0,0,0,.244-.024.238.238,0,0,0,.1-.234v-.006l-.242-2.449a1.014,1.014,0,0,1,.26-.771l1.627-1.83a.268.268,0,0,0,.058-.244.264.264,0,0,0-.2-.172l-2.4-.523a1.031,1.031,0,0,1-.661-.488Z" transform="translate(-3.487 -5.449)" fill="#00db8c"/>
</svg>
