<svg xmlns="http://www.w3.org/2000/svg" width="10.445" height="10" viewBox="0 0 10.445 10">
  <path id="Path_51" data-name="Path 51" d="M14.244,10.438a.746.746,0,0,0-.411-1.229l-2.4-.522a.53.53,0,0,1-.343-.254L9.858,6.314a0,0,0,0,0,0,0,.758.758,0,0,0-1.3,0L7.329,8.431a.522.522,0,0,1-.342.254l-2.4.524a.745.745,0,0,0-.407,1.231l1.636,1.836a.514.514,0,0,1,.133.4L5.707,15.11a.749.749,0,0,0,.739.839.774.774,0,0,0,.305-.065l2.254-.993a.461.461,0,0,1,.417,0l2.252.992a.746.746,0,0,0,1.043-.771l-.241-2.437a.512.512,0,0,1,.133-.4Z" transform="translate(-3.987 -5.949)" fill="#00db8c"/>
</svg>
